<?xml version="1.0" encoding="UTF-8"?>
<svg id="Layer_1" data-name="Layer 1" xmlns="http://www.w3.org/2000/svg" viewBox="0 0 881.53 276.68">
  <defs>
    <style>
      .cls-1 {
        fill: #f47b20;
      }

      .cls-2 {
        fill: #f04b4c;
      }

      .cls-3 {
        fill: #f05b78;
      }

      .cls-4 {
        fill: #ffc20e;
      }

      .cls-5 {
        fill: #6b57a5;
      }

      .cls-6 {
        fill: #91c848;
      }

      .cls-7 {
        fill: #15bef0;
      }
    </style>
  </defs>
  <g>
    <polygon class="cls-2" points="807.64 218.44 733.75 218.44 770.7 154.25 807.64 90.06 844.59 154.25 881.53 218.44 807.64 218.44"/>
    <g>
      <polygon class="cls-1" points="73.89 218.44 0 218.44 36.94 154.25 73.89 90.06 110.83 154.25 147.78 218.44 73.89 218.44"/>
      <polygon class="cls-5" points="73.89 218.44 38.18 218.44 56.03 187.41 73.89 156.39 91.74 187.41 109.6 218.44 73.89 218.44"/>
    </g>
    <polygon class="cls-7" points="807.64 218.44 771.93 218.44 789.79 187.41 807.64 156.39 825.5 187.41 843.35 218.44 807.64 218.44"/>
    <rect class="cls-5" x="655.43" y="90.06" width="55.62" height="128.38"/>
    <g>
      <rect class="cls-6" x="170.49" y="90.06" width="55.62" height="128.38"/>
      <rect class="cls-2" x="198.29" y="162.41" width="55.62" height="56.03"/>
    </g>
    <g>
      <rect class="cls-4" x="276.62" y="90.06" width="83.42" height="128.38"/>
      <rect class="cls-3" x="335.12" y="116.07" width="24.92" height="25.1"/>
      <rect class="cls-3" x="335.12" y="167.43" width="24.92" height="25.1"/>
    </g>
    <g>
      <ellipse class="cls-6" cx="591.19" cy="131.72" rx="41.53" ry="41.66"/>
      <polygon class="cls-4" points="590.76 218.44 555.05 218.44 572.9 187.41 590.76 156.39 608.61 187.41 626.47 218.44 590.76 218.44"/>
      <rect class="cls-3" x="535.14" y="90.06" width="55.62" height="128.38"/>
    </g>
  </g>
  <g>
    <path class="cls-5" d="m219.59,48.16c1.59,1.08,3.32,2.13,5.21,3.15,1.88,1.02,3.13,1.83,3.74,2.43.61.6.92,1.45.92,2.56,0,.79-.36,1.57-1.08,2.36-.72.78-1.6,1.18-2.62,1.18-.83,0-1.84-.27-3.03-.81-1.19-.54-2.58-1.32-4.18-2.36-1.6-1.03-3.36-2.23-5.26-3.61-3.55,1.81-7.9,2.72-13.06,2.72-4.18,0-7.93-.67-11.24-2.01-3.31-1.34-6.1-3.26-8.35-5.78-2.25-2.51-3.94-5.5-5.08-8.96-1.14-3.46-1.71-7.22-1.71-11.3s.59-7.95,1.78-11.41,2.9-6.4,5.15-8.83c2.25-2.43,4.99-4.29,8.22-5.57,3.23-1.29,6.9-1.93,11-1.93,5.58,0,10.36,1.13,14.36,3.4,4,2.27,7.02,5.5,9.08,9.68,2.05,4.18,3.08,9.09,3.08,14.74,0,8.56-2.31,15.34-6.93,20.35Zm-8.55-5.96c1.52-1.74,2.63-3.8,3.36-6.18.72-2.38,1.08-5.14,1.08-8.28,0-3.95-.64-7.37-1.91-10.27-1.27-2.89-3.09-5.08-5.45-6.57-2.36-1.48-5.07-2.23-8.12-2.23-2.18,0-4.19.41-6.03,1.23-1.85.82-3.44,2.02-4.77,3.59-1.33,1.57-2.38,3.58-3.15,6.02-.77,2.44-1.16,5.18-1.16,8.22,0,6.21,1.44,10.98,4.33,14.33,2.89,3.35,6.53,5.02,10.93,5.02,1.81,0,3.67-.38,5.58-1.14-1.15-.86-2.59-1.72-4.31-2.57-1.72-.86-2.9-1.52-3.54-1.99-.64-.47-.95-1.13-.95-1.99,0-.74.31-1.38.92-1.95s1.28-.85,2.02-.85c2.22,0,5.95,1.86,11.19,5.59Z"/>
    <path class="cls-5" d="m243.43,32.56V6.62c0-2.21.49-3.86,1.49-4.97.99-1.1,2.29-1.66,3.91-1.66s3.03.55,4.02,1.66c.99,1.1,1.49,2.76,1.49,4.97v26.53c0,3.02.34,5.54,1.01,7.56.67,2.02,1.86,3.59,3.58,4.71,1.71,1.12,4.11,1.67,7.19,1.67,4.26,0,7.26-1.13,9.02-3.4,1.76-2.27,2.64-5.71,2.64-10.32V6.62c0-2.23.49-3.89,1.47-4.99s2.29-1.64,3.93-1.64,2.96.55,3.98,1.64c1.01,1.09,1.52,2.75,1.52,4.99v25.94c0,4.22-.41,7.74-1.23,10.56-.82,2.82-2.37,5.3-4.64,7.43-1.96,1.82-4.23,3.14-6.82,3.97-2.59.83-5.62,1.25-9.1,1.25-4.13,0-7.69-.45-10.67-1.34-2.98-.89-5.42-2.28-7.3-4.16-1.88-1.88-3.26-4.28-4.14-7.21s-1.32-6.43-1.32-10.51Z"/>
    <path class="cls-5" d="m308.38,49.12V6.62c0-2.21.5-3.86,1.5-4.97,1-1.1,2.3-1.66,3.89-1.66s2.96.55,3.98,1.64c1.01,1.09,1.52,2.75,1.52,4.99v42.5c0,2.23-.51,3.9-1.52,5-1.02,1.1-2.34,1.66-3.98,1.66s-2.86-.56-3.87-1.67c-1.02-1.12-1.52-2.78-1.52-4.99Z"/>
    <path class="cls-5" d="m353.16,6.55l20.94,31.79V6.26c0-2.08.45-3.65,1.34-4.69.89-1.04,2.1-1.56,3.61-1.56s2.8.52,3.7,1.56c.9,1.04,1.36,2.61,1.36,4.69v42.42c0,4.73-1.96,7.1-5.87,7.1-.98,0-1.86-.14-2.64-.42-.78-.28-1.52-.73-2.2-1.34-.69-.61-1.32-1.33-1.91-2.15s-1.17-1.66-1.76-2.52l-20.43-31.42v31.61c0,2.06-.48,3.62-1.43,4.67s-2.18,1.58-3.67,1.58-2.78-.53-3.7-1.6c-.93-1.07-1.39-2.62-1.39-4.65V7.91c0-1.77.2-3.15.59-4.16.46-1.1,1.23-2,2.31-2.7s2.24-1.05,3.48-1.05c.98,0,1.82.16,2.51.48.7.32,1.31.75,1.83,1.29.53.54,1.06,1.24,1.61,2.1s1.12,1.75,1.71,2.69Z"/>
    <path class="cls-5" d="m438.47,9.93h-11.88v39.19c0,2.26-.5,3.93-1.5,5.02-1,1.09-2.3,1.64-3.89,1.64s-2.93-.55-3.94-1.66c-1.01-1.1-1.52-2.77-1.52-5V9.93h-11.88c-1.86,0-3.24-.41-4.14-1.23-.9-.82-1.36-1.91-1.36-3.26s.47-2.5,1.41-3.31c.94-.81,2.3-1.21,4.09-1.21h34.63c1.88,0,3.28.42,4.2,1.25.92.83,1.38,1.93,1.38,3.28s-.47,2.43-1.39,3.26c-.93.82-2.32,1.23-4.18,1.23Z"/>
    <path class="cls-5" d="m487.69,48.75l-2.57-6.77h-21.86l-2.57,6.92c-1,2.7-1.86,4.52-2.57,5.46-.71.94-1.87,1.42-3.49,1.42-1.37,0-2.58-.5-3.63-1.51s-1.58-2.15-1.58-3.42c0-.74.12-1.5.37-2.28s.65-1.88,1.21-3.27l13.75-35.03c.39-1.01.86-2.21,1.41-3.62.55-1.41,1.14-2.58,1.76-3.51.62-.93,1.44-1.69,2.46-2.26,1.01-.58,2.27-.86,3.76-.86s2.78.29,3.8.86c1.01.58,1.83,1.32,2.46,2.23.62.91,1.15,1.88,1.58,2.93s.97,2.43,1.63,4.18l14.05,34.81c1.1,2.65,1.65,4.58,1.65,5.78s-.52,2.4-1.56,3.44-2.29,1.56-3.76,1.56c-.86,0-1.59-.15-2.2-.46s-1.13-.72-1.54-1.25-.86-1.34-1.34-2.43c-.48-1.09-.89-2.05-1.23-2.89Zm-21.57-14.98h16.07l-8.11-22.26-7.96,22.26Z"/>
    <path class="cls-5" d="m525.5,6.62v39.26h22.08c1.76,0,3.11.43,4.05,1.29s1.41,1.94,1.41,3.24-.46,2.4-1.39,3.22c-.93.82-2.29,1.23-4.07,1.23h-26.3c-2.37,0-4.08-.53-5.12-1.58-1.04-1.05-1.56-2.76-1.56-5.11V6.62c0-2.21.5-3.86,1.49-4.97.99-1.1,2.29-1.66,3.91-1.66s2.97.55,3.98,1.64c1.02,1.09,1.52,2.75,1.52,4.99Z"/>
    <path class="cls-5" d="m600.75.92h14.19c3.69,0,6.86.34,9.5,1.03,2.64.69,5.04,1.97,7.19,3.86,5.6,4.81,8.4,12.12,8.4,21.93,0,3.24-.28,6.19-.84,8.87-.56,2.67-1.43,5.08-2.6,7.23-1.17,2.15-2.68,4.07-4.51,5.76-1.44,1.3-3.02,2.34-4.73,3.13-1.71.79-3.55,1.34-5.52,1.66-1.97.32-4.19.48-6.66.48h-14.2c-1.98,0-3.47-.3-4.47-.9-1-.6-1.66-1.45-1.96-2.54s-.46-2.51-.46-4.25V7.62c0-2.36.53-4.06,1.58-5.11,1.05-1.05,2.75-1.58,5.1-1.58Zm4.22,8.65v36.61h8.25c1.81,0,3.23-.05,4.25-.15,1.03-.1,2.09-.34,3.19-.74s2.05-.94,2.86-1.66c3.64-3.09,5.47-8.41,5.47-15.97,0-5.32-.8-9.31-2.4-11.96-1.6-2.65-3.58-4.34-5.92-5.06-2.35-.72-5.19-1.09-8.51-1.09h-7.19Z"/>
    <path class="cls-5" d="m692.55,9.35h-24.54v13.25h22.59c1.66,0,2.9.37,3.72,1.12.82.75,1.23,1.74,1.23,2.96s-.4,2.23-1.21,3c-.81.77-2.05,1.16-3.74,1.16h-22.59v15.34h25.38c1.71,0,3,.4,3.87,1.2s1.3,1.86,1.3,3.18-.43,2.31-1.3,3.11-2.16,1.2-3.87,1.2h-29.6c-2.37,0-4.08-.53-5.12-1.58-1.04-1.05-1.56-2.76-1.56-5.11V7.62c0-1.57.23-2.85.7-3.85.47-.99,1.19-1.72,2.18-2.17.99-.45,2.26-.68,3.8-.68h28.76c1.74,0,3.03.39,3.87,1.16.84.77,1.27,1.79,1.27,3.04s-.42,2.3-1.27,3.07c-.84.77-2.13,1.16-3.87,1.16Z"/>
  </g>
  <g>
    <path class="cls-5" d="m189.36,264.12c0,.57-.17,1.19-.51,1.84-.34.65-.87,1.28-1.57,1.87s-1.59,1.07-2.65,1.43-2.27.54-3.61.54c-2.84,0-5.06-.83-6.66-2.49-1.6-1.66-2.39-3.89-2.39-6.69,0-1.89.37-3.57,1.1-5.02.73-1.45,1.79-2.58,3.17-3.37,1.38-.8,3.03-1.19,4.96-1.19,1.19,0,2.28.17,3.28.52s1.84.8,2.53,1.35c.69.55,1.22,1.14,1.58,1.77s.55,1.21.55,1.75-.21,1.02-.62,1.4c-.41.38-.91.57-1.49.57-.38,0-.7-.1-.95-.3-.25-.2-.54-.52-.85-.96-.56-.86-1.15-1.5-1.76-1.93s-1.39-.64-2.33-.64c-1.36,0-2.45.53-3.29,1.6s-1.25,2.52-1.25,4.37c0,.87.11,1.67.32,2.39.21.73.52,1.35.93,1.86.4.51.89.9,1.47,1.17s1.2.4,1.89.4c.92,0,1.71-.21,2.37-.64s1.24-1.08,1.74-1.96c.28-.52.58-.92.91-1.22s.72-.44,1.2-.44c.56,0,1.03.21,1.4.64s.56.88.56,1.37Z"/>
    <path class="cls-5" d="m207.76,267.22c-1.11.87-2.19,1.52-3.23,1.95-1.04.43-2.2.65-3.5.65-1.18,0-2.22-.23-3.11-.7-.89-.47-1.58-1.1-2.07-1.9-.48-.8-.72-1.67-.72-2.6,0-1.26.4-2.34,1.2-3.23.8-.89,1.89-1.49,3.29-1.79.29-.07,1.02-.22,2.17-.46,1.16-.24,2.15-.45,2.98-.65.83-.2,1.72-.44,2.69-.72-.06-1.22-.3-2.11-.73-2.68-.43-.57-1.33-.85-2.69-.85-1.17,0-2.05.16-2.64.49s-1.1.82-1.52,1.47c-.42.65-.72,1.09-.89,1.29-.17.21-.55.31-1.12.31-.52,0-.96-.17-1.34-.5-.38-.33-.56-.76-.56-1.28,0-.81.29-1.6.86-2.37.57-.77,1.47-1.4,2.68-1.89,1.21-.5,2.73-.74,4.53-.74,2.02,0,3.61.24,4.77.72,1.16.48,1.97,1.24,2.45,2.27.48,1.04.72,2.41.72,4.13,0,1.08,0,2,0,2.76,0,.76-.01,1.59-.03,2.52,0,.87.14,1.77.43,2.71.29.94.43,1.55.43,1.82,0,.47-.22.9-.67,1.29-.44.39-.95.58-1.51.58-.47,0-.94-.22-1.4-.67-.46-.44-.95-1.09-1.47-1.94Zm-.3-6.68c-.67.25-1.65.51-2.94.79-1.29.28-2.18.48-2.67.61-.5.13-.97.38-1.42.76-.45.38-.67.9-.67,1.58s.26,1.29.79,1.78,1.22.74,2.07.74c.91,0,1.75-.2,2.52-.6.77-.4,1.33-.92,1.69-1.55.42-.7.62-1.85.62-3.45v-.66Z"/>
    <path class="cls-5" d="m234.22,263.79c0,1.27-.31,2.36-.93,3.27-.62.91-1.53,1.6-2.74,2.06-1.21.47-2.68.7-4.41.7s-3.07-.26-4.25-.76-2.05-1.14-2.61-1.9c-.56-.76-.84-1.52-.84-2.29,0-.51.18-.94.54-1.3s.82-.54,1.37-.54c.48,0,.85.12,1.11.35.26.24.51.57.74,1,.47.82,1.04,1.44,1.69,1.84s1.55.61,2.69.61c.92,0,1.68-.21,2.27-.62s.89-.88.89-1.41c0-.81-.31-1.4-.92-1.78s-1.62-.73-3.03-1.06c-1.58-.39-2.87-.81-3.87-1.24s-1.79-1.01-2.39-1.72c-.6-.71-.89-1.58-.89-2.62,0-.92.28-1.8.83-2.62.55-.82,1.36-1.48,2.44-1.97s2.37-.74,3.89-.74c1.19,0,2.26.13,3.21.37.95.25,1.74.58,2.38,1s1.12.88,1.45,1.39c.33.51.5,1,.5,1.49,0,.53-.18.96-.53,1.3-.35.34-.86.51-1.51.51-.47,0-.87-.13-1.2-.41-.33-.27-.71-.68-1.14-1.22-.35-.45-.76-.81-1.23-1.08-.47-.27-1.11-.41-1.92-.41s-1.52.18-2.07.53c-.55.35-.83.8-.83,1.33,0,.48.2.88.61,1.19.4.31.95.57,1.64.77.68.2,1.63.45,2.83.74,1.43.35,2.59.77,3.5,1.25s1.59,1.06,2.06,1.72.7,1.41.7,2.26Z"/>
    <path class="cls-5" d="m252.5,267.22c-1.11.87-2.19,1.52-3.23,1.95-1.04.43-2.21.65-3.5.65-1.18,0-2.22-.23-3.11-.7-.89-.47-1.58-1.1-2.06-1.9s-.72-1.67-.72-2.6c0-1.26.4-2.34,1.2-3.23.8-.89,1.89-1.49,3.29-1.79.29-.07,1.02-.22,2.17-.46,1.16-.24,2.15-.45,2.97-.65.83-.2,1.72-.44,2.69-.72-.06-1.22-.3-2.11-.73-2.68-.43-.57-1.33-.85-2.69-.85-1.17,0-2.05.16-2.64.49s-1.1.82-1.52,1.47c-.42.65-.72,1.09-.89,1.29-.17.21-.55.31-1.12.31-.52,0-.96-.17-1.34-.5-.38-.33-.56-.76-.56-1.28,0-.81.29-1.6.86-2.37.57-.77,1.47-1.4,2.68-1.89,1.21-.5,2.72-.74,4.53-.74,2.02,0,3.61.24,4.77.72,1.16.48,1.97,1.24,2.45,2.27.48,1.04.72,2.41.72,4.13,0,1.08,0,2,0,2.76,0,.76-.01,1.59-.02,2.52,0,.87.14,1.77.43,2.71.29.94.43,1.55.43,1.82,0,.47-.22.9-.67,1.29-.44.39-.95.58-1.51.58-.47,0-.94-.22-1.4-.67-.46-.44-.95-1.09-1.47-1.94Zm-.3-6.68c-.67.25-1.65.51-2.94.79-1.29.28-2.18.48-2.67.61s-.97.38-1.41.76c-.45.38-.67.9-.67,1.58s.26,1.29.79,1.78c.53.49,1.22.74,2.07.74.91,0,1.75-.2,2.52-.6.77-.4,1.33-.92,1.69-1.55.42-.7.63-1.85.63-3.45v-.66Z"/>
    <path class="cls-5" d="m288.14,267.19v-.46c-.62.71-1.23,1.29-1.83,1.73s-1.25.78-1.95,1.01c-.7.23-1.47.35-2.3.35-1.1,0-2.12-.23-3.06-.7-.94-.47-1.75-1.14-2.44-2s-1.21-1.89-1.56-3.06-.53-2.44-.53-3.8c0-2.89.7-5.13,2.11-6.75,1.4-1.61,3.25-2.42,5.54-2.42,1.33,0,2.44.23,3.35.68.91.46,1.8,1.16,2.66,2.11v-6.81c0-.95.19-1.66.56-2.15.38-.48.91-.73,1.61-.73s1.23.22,1.61.67c.38.45.56,1.1.56,1.97v20.36c0,.88-.2,1.54-.61,1.98s-.93.66-1.57.66-1.15-.23-1.56-.68c-.41-.46-.62-1.11-.62-1.95Zm-9.05-6.78c0,1.25.2,2.32.58,3.19.39.88.92,1.54,1.59,1.99.67.45,1.41.67,2.21.67s1.55-.21,2.22-.63,1.2-1.07,1.6-1.94c.4-.87.6-1.96.6-3.27,0-1.23-.2-2.29-.6-3.17-.4-.88-.94-1.56-1.62-2.03-.68-.47-1.42-.7-2.23-.7s-1.6.24-2.26.72c-.66.48-1.18,1.17-1.54,2.06s-.55,1.94-.55,3.12Z"/>
    <path class="cls-5" d="m312.71,261.58h-9c0,1.05.22,1.97.63,2.77.41.8.95,1.4,1.63,1.81.68.41,1.43.61,2.25.61.55,0,1.05-.07,1.51-.2.46-.13.9-.33,1.32-.61s.82-.57,1.18-.89c.36-.31.83-.74,1.4-1.28.24-.2.57-.3,1.01-.3.47,0,.85.13,1.15.39s.44.63.44,1.1c0,.42-.16.9-.49,1.46s-.82,1.09-1.47,1.61c-.66.51-1.48.94-2.48,1.28s-2.14.51-3.43.51c-2.95,0-5.25-.85-6.89-2.54-1.64-1.69-2.46-3.98-2.46-6.88,0-1.36.2-2.63.61-3.8.4-1.17.99-2.17,1.77-3s1.73-1.47,2.87-1.92c1.14-.45,2.39-.67,3.77-.67,1.8,0,3.34.38,4.63,1.14,1.29.76,2.25,1.75,2.89,2.95.64,1.21.96,2.43.96,3.69,0,1.16-.33,1.91-.99,2.26-.66.34-1.6.51-2.8.51Zm-9-2.62h8.34c-.11-1.58-.54-2.76-1.27-3.54-.74-.78-1.71-1.18-2.91-1.18s-2.09.4-2.82,1.19c-.74.8-1.18,1.97-1.34,3.53Z"/>
    <path class="cls-5" d="m334.16,251.47h1.1v-1.39c0-1.44.18-2.59.55-3.44s.98-1.47,1.85-1.86c.87-.39,2.06-.58,3.58-.58,2.68,0,4.03.66,4.03,1.98,0,.43-.14.79-.42,1.1-.28.3-.61.46-.99.46-.18,0-.49-.03-.93-.1-.44-.07-.81-.1-1.11-.1-.83,0-1.37.25-1.6.74-.24.49-.35,1.19-.35,2.1v1.1h1.13c1.75,0,2.63.53,2.63,1.59,0,.76-.23,1.23-.7,1.44-.47.2-1.11.3-1.93.3h-1.13v12.22c0,.91-.22,1.61-.65,2.09-.43.48-.99.72-1.68.72s-1.19-.24-1.63-.72c-.43-.48-.65-1.18-.65-2.09v-12.22h-1.26c-.69,0-1.21-.15-1.58-.47-.37-.31-.56-.71-.56-1.21,0-1.11.77-1.66,2.31-1.66Z"/>
    <path class="cls-5" d="m361.18,261.58h-9c.01,1.05.22,1.97.63,2.77.41.8.96,1.4,1.64,1.81s1.43.61,2.25.61c.55,0,1.05-.07,1.51-.2.45-.13.9-.33,1.32-.61s.82-.57,1.18-.89c.36-.31.83-.74,1.4-1.28.24-.2.57-.3,1.01-.3.47,0,.85.13,1.14.39.29.26.44.63.44,1.1,0,.42-.16.9-.49,1.46-.33.56-.82,1.09-1.48,1.61-.66.51-1.48.94-2.48,1.28s-2.14.51-3.43.51c-2.96,0-5.25-.85-6.89-2.54s-2.46-3.98-2.46-6.88c0-1.36.2-2.63.61-3.8.4-1.17.99-2.17,1.77-3s1.73-1.47,2.87-1.92c1.14-.45,2.39-.67,3.78-.67,1.8,0,3.34.38,4.63,1.14,1.29.76,2.25,1.75,2.89,2.95.64,1.21.96,2.43.96,3.69,0,1.16-.33,1.91-.99,2.26-.66.34-1.6.51-2.8.51Zm-9-2.62h8.34c-.11-1.58-.54-2.76-1.27-3.54s-1.7-1.18-2.91-1.18-2.09.4-2.82,1.19c-.74.8-1.18,1.97-1.34,3.53Z"/>
    <path class="cls-5" d="m386.42,263.79c0,1.27-.31,2.36-.93,3.27-.62.91-1.53,1.6-2.74,2.06-1.21.47-2.68.7-4.41.7s-3.07-.26-4.25-.76-2.05-1.14-2.61-1.9c-.56-.76-.84-1.52-.84-2.29,0-.51.18-.94.54-1.3s.82-.54,1.37-.54c.48,0,.85.12,1.11.35.26.24.51.57.74,1,.47.82,1.04,1.44,1.69,1.84s1.55.61,2.69.61c.92,0,1.68-.21,2.27-.62s.89-.88.89-1.41c0-.81-.31-1.4-.92-1.78s-1.62-.73-3.03-1.06c-1.58-.39-2.87-.81-3.87-1.24s-1.79-1.01-2.39-1.72c-.6-.71-.89-1.58-.89-2.62,0-.92.28-1.8.83-2.62.55-.82,1.36-1.48,2.44-1.97s2.37-.74,3.89-.74c1.19,0,2.26.13,3.21.37.95.25,1.74.58,2.38,1s1.12.88,1.45,1.39c.33.51.5,1,.5,1.49,0,.53-.18.96-.53,1.3-.35.34-.86.51-1.51.51-.47,0-.87-.13-1.2-.41-.33-.27-.71-.68-1.14-1.22-.35-.45-.76-.81-1.23-1.08-.47-.27-1.11-.41-1.92-.41s-1.52.18-2.07.53c-.55.35-.83.8-.83,1.33,0,.48.2.88.61,1.19.4.31.95.57,1.64.77.68.2,1.63.45,2.83.74,1.43.35,2.59.77,3.5,1.25s1.59,1.06,2.06,1.72.7,1.41.7,2.26Z"/>
    <path class="cls-5" d="m393.33,251.47h.51v-2.77c0-.74.02-1.33.06-1.75.04-.42.15-.79.33-1.09.18-.32.44-.57.78-.77s.71-.3,1.13-.3c.58,0,1.11.22,1.58.66.31.29.51.65.6,1.07.08.42.13,1.02.13,1.8v3.14h1.69c.65,0,1.15.16,1.49.47.34.31.51.71.51,1.19,0,.62-.24,1.05-.73,1.3-.49.25-1.19.37-2.1.37h-.86v8.49c0,.72.03,1.28.08,1.66.05.39.19.71.4.95s.58.36,1.07.36c.27,0,.63-.05,1.1-.14.46-.1.82-.14,1.08-.14.37,0,.71.15,1,.45.3.3.45.67.45,1.11,0,.74-.4,1.31-1.21,1.71-.81.39-1.97.59-3.49.59-1.44,0-2.53-.24-3.27-.73-.74-.48-1.23-1.15-1.46-2.01-.23-.86-.35-2-.35-3.43v-8.86h-.61c-.66,0-1.17-.16-1.52-.47s-.52-.72-.52-1.2.18-.88.55-1.19c.36-.31.9-.47,1.59-.47Z"/>
    <path class="cls-5" d="m419.69,267.22c-1.11.87-2.19,1.52-3.23,1.95-1.04.43-2.21.65-3.5.65-1.18,0-2.22-.23-3.11-.7-.89-.47-1.58-1.1-2.06-1.9s-.72-1.67-.72-2.6c0-1.26.4-2.34,1.2-3.23.8-.89,1.89-1.49,3.29-1.79.29-.07,1.02-.22,2.17-.46,1.16-.24,2.15-.45,2.97-.65.83-.2,1.72-.44,2.69-.72-.06-1.22-.3-2.11-.73-2.68-.43-.57-1.33-.85-2.69-.85-1.17,0-2.05.16-2.64.49s-1.1.82-1.52,1.47c-.42.65-.72,1.09-.89,1.29-.17.21-.55.31-1.12.31-.52,0-.96-.17-1.34-.5-.38-.33-.56-.76-.56-1.28,0-.81.29-1.6.86-2.37.57-.77,1.47-1.4,2.68-1.89,1.21-.5,2.72-.74,4.53-.74,2.02,0,3.61.24,4.77.72,1.16.48,1.97,1.24,2.45,2.27.48,1.04.72,2.41.72,4.13,0,1.08,0,2,0,2.76,0,.76-.01,1.59-.02,2.52,0,.87.14,1.77.43,2.71.29.94.43,1.55.43,1.82,0,.47-.22.9-.67,1.29-.44.39-.95.58-1.51.58-.47,0-.94-.22-1.4-.67-.46-.44-.95-1.09-1.47-1.94Zm-.3-6.68c-.67.25-1.65.51-2.94.79-1.29.28-2.18.48-2.67.61s-.97.38-1.41.76c-.45.38-.67.9-.67,1.58s.26,1.29.79,1.78c.53.49,1.22.74,2.07.74.91,0,1.75-.2,2.52-.6.77-.4,1.33-.92,1.69-1.55.42-.7.63-1.85.63-3.45v-.66Z"/>
    <path class="cls-5" d="m446.15,263.79c0,1.27-.31,2.36-.93,3.27-.62.91-1.53,1.6-2.74,2.06-1.21.47-2.68.7-4.41.7s-3.07-.26-4.25-.76-2.05-1.14-2.61-1.9c-.56-.76-.84-1.52-.84-2.29,0-.51.18-.94.54-1.3.36-.36.81-.54,1.36-.54.48,0,.85.12,1.11.35.26.24.51.57.74,1,.47.82,1.04,1.44,1.69,1.84.66.41,1.55.61,2.69.61.92,0,1.68-.21,2.27-.62s.89-.88.89-1.41c0-.81-.31-1.4-.92-1.78-.61-.37-1.62-.73-3.03-1.06-1.58-.39-2.87-.81-3.87-1.24s-1.79-1.01-2.39-1.72c-.59-.71-.89-1.58-.89-2.62,0-.92.28-1.8.83-2.62.55-.82,1.36-1.48,2.44-1.97,1.07-.49,2.37-.74,3.88-.74,1.19,0,2.26.13,3.21.37.95.25,1.74.58,2.38,1s1.12.88,1.45,1.39c.33.51.5,1,.5,1.49,0,.53-.18.96-.53,1.3-.35.34-.86.51-1.51.51-.47,0-.87-.13-1.2-.41-.33-.27-.71-.68-1.14-1.22-.35-.45-.76-.81-1.23-1.08-.47-.27-1.11-.41-1.92-.41s-1.52.18-2.07.53c-.55.35-.83.8-.83,1.33,0,.48.2.88.61,1.19.4.31.95.57,1.63.77.69.2,1.63.45,2.83.74,1.43.35,2.59.77,3.5,1.25.9.48,1.59,1.06,2.06,1.72.47.66.7,1.41.7,2.26Z"/>
    <path class="cls-5" d="m477.04,261.58h-9c.01,1.05.22,1.97.63,2.77.41.8.95,1.4,1.64,1.81.68.41,1.43.61,2.25.61.55,0,1.05-.07,1.51-.2.46-.13.9-.33,1.32-.61s.82-.57,1.18-.89c.36-.31.83-.74,1.4-1.28.24-.2.57-.3,1.01-.3.47,0,.85.13,1.15.39s.44.63.44,1.1c0,.42-.16.9-.49,1.46-.32.56-.82,1.09-1.47,1.61-.66.51-1.48.94-2.48,1.28-.99.34-2.14.51-3.43.51-2.95,0-5.25-.85-6.89-2.54s-2.46-3.98-2.46-6.88c0-1.36.2-2.63.61-3.8.4-1.17.99-2.17,1.77-3s1.73-1.47,2.87-1.92c1.14-.45,2.39-.67,3.77-.67,1.8,0,3.34.38,4.63,1.14s2.25,1.75,2.89,2.95c.64,1.21.96,2.43.96,3.69,0,1.16-.33,1.91-.99,2.26-.66.34-1.6.51-2.8.51Zm-9-2.62h8.34c-.11-1.58-.54-2.76-1.27-3.54s-1.71-1.18-2.91-1.18-2.09.4-2.82,1.19c-.74.8-1.18,1.97-1.34,3.53Z"/>
    <path class="cls-5" d="m503.1,253.65v.56c.86-1.07,1.76-1.86,2.7-2.36.93-.5,1.99-.75,3.17-.75,1.42,0,2.72.37,3.91,1.1s2.13,1.8,2.82,3.21c.69,1.41,1.04,3.08,1.04,5,0,1.42-.2,2.72-.6,3.91-.4,1.19-.95,2.19-1.64,2.99-.7.81-1.52,1.43-2.47,1.86-.95.43-1.97.65-3.06.65-1.31,0-2.42-.27-3.31-.8s-1.74-1.31-2.55-2.33v6.93c0,2.03-.74,3.04-2.21,3.04-.86,0-1.44-.26-1.72-.79-.28-.52-.42-1.29-.42-2.29v-19.92c0-.88.19-1.53.57-1.97.38-.43.9-.65,1.57-.65s1.18.22,1.59.67.62,1.08.62,1.92Zm9.02,6.71c0-1.22-.19-2.26-.56-3.14s-.89-1.54-1.54-2.01c-.66-.47-1.38-.7-2.18-.7-1.27,0-2.34.5-3.21,1.5-.87,1-1.31,2.48-1.31,4.43,0,1.84.43,3.27,1.3,4.29.86,1.02,1.94,1.53,3.22,1.53.76,0,1.47-.22,2.12-.67.65-.45,1.17-1.11,1.57-2,.39-.89.59-1.97.59-3.23Z"/>
    <path class="cls-5" d="m536.03,261.58h-9c.01,1.05.22,1.97.63,2.77.41.8.95,1.4,1.64,1.81.68.41,1.43.61,2.25.61.55,0,1.05-.07,1.51-.2.46-.13.9-.33,1.32-.61s.82-.57,1.18-.89c.36-.31.83-.74,1.4-1.28.24-.2.57-.3,1.01-.3.47,0,.85.13,1.15.39s.44.63.44,1.1c0,.42-.16.9-.49,1.46-.32.56-.82,1.09-1.47,1.61-.66.51-1.48.94-2.48,1.28-.99.34-2.14.51-3.43.51-2.95,0-5.25-.85-6.89-2.54s-2.46-3.98-2.46-6.88c0-1.36.2-2.63.61-3.8.4-1.17.99-2.17,1.77-3s1.73-1.47,2.87-1.92c1.14-.45,2.39-.67,3.77-.67,1.8,0,3.34.38,4.63,1.14s2.25,1.75,2.89,2.95c.64,1.21.96,2.43.96,3.69,0,1.16-.33,1.91-.99,2.26-.66.34-1.6.51-2.8.51Zm-9-2.62h8.34c-.11-1.58-.54-2.76-1.27-3.54s-1.71-1.18-2.91-1.18-2.09.4-2.82,1.19c-.74.8-1.18,1.97-1.34,3.53Z"/>
    <path class="cls-5" d="m551.03,263.17v3.86c0,.94-.22,1.64-.66,2.1-.44.47-.99.7-1.67.7s-1.21-.24-1.63-.71-.64-1.17-.64-2.1v-12.85c0-2.07.75-3.11,2.24-3.11.76,0,1.32.24,1.65.73.34.48.52,1.2.56,2.15.55-.95,1.12-1.66,1.69-2.15s1.35-.73,2.32-.73,1.9.24,2.82.73c.91.48,1.36,1.13,1.36,1.93,0,.56-.19,1.03-.58,1.4-.39.37-.81.55-1.26.55-.17,0-.58-.1-1.22-.31s-1.22-.31-1.71-.31c-.67,0-1.22.18-1.65.53-.43.35-.76.88-.99,1.58-.24.7-.4,1.53-.49,2.49-.09.96-.13,2.14-.13,3.53Z"/>
    <path class="cls-5" d="m566.67,248.92c-.64,0-1.19-.2-1.64-.59-.45-.39-.68-.95-.68-1.67,0-.65.23-1.19.7-1.62.47-.42,1.01-.63,1.63-.63s1.12.19,1.58.58c.46.38.69.94.69,1.67s-.22,1.27-.67,1.66c-.45.4-.98.6-1.6.6Zm2.28,4.77v13.34c0,.92-.22,1.62-.66,2.1s-.99.71-1.67.71-1.22-.24-1.64-.73c-.42-.48-.63-1.18-.63-2.08v-13.2c0-.91.21-1.6.63-2.06.42-.46.97-.69,1.64-.69s1.23.23,1.67.69.66,1.1.66,1.93Z"/>
    <path class="cls-5" d="m580.71,253.65v.56c.86-1.07,1.76-1.86,2.7-2.36.93-.5,1.99-.75,3.17-.75,1.42,0,2.72.37,3.91,1.1s2.13,1.8,2.82,3.21c.69,1.41,1.04,3.08,1.04,5,0,1.42-.2,2.72-.6,3.91-.4,1.19-.95,2.19-1.64,2.99-.7.81-1.52,1.43-2.47,1.86-.95.43-1.97.65-3.06.65-1.31,0-2.42-.27-3.31-.8s-1.74-1.31-2.55-2.33v6.93c0,2.03-.74,3.04-2.21,3.04-.86,0-1.44-.26-1.72-.79-.28-.52-.42-1.29-.42-2.29v-19.92c0-.88.19-1.53.57-1.97.38-.43.9-.65,1.57-.65s1.18.22,1.59.67.62,1.08.62,1.92Zm9.02,6.71c0-1.22-.19-2.26-.56-3.14s-.89-1.54-1.54-2.01c-.66-.47-1.38-.7-2.18-.7-1.27,0-2.34.5-3.21,1.5-.87,1-1.31,2.48-1.31,4.43,0,1.84.43,3.27,1.3,4.29.86,1.02,1.94,1.53,3.22,1.53.76,0,1.47-.22,2.12-.67.65-.45,1.17-1.11,1.57-2,.39-.89.59-1.97.59-3.23Z"/>
    <path class="cls-5" d="m613.64,261.58h-9c.01,1.05.22,1.97.63,2.77.41.8.95,1.4,1.64,1.81.68.41,1.43.61,2.25.61.55,0,1.05-.07,1.51-.2.46-.13.9-.33,1.32-.61s.82-.57,1.18-.89c.36-.31.83-.74,1.4-1.28.24-.2.57-.3,1.01-.3.47,0,.85.13,1.15.39s.44.63.44,1.1c0,.42-.16.9-.49,1.46-.32.56-.82,1.09-1.47,1.61-.66.51-1.48.94-2.48,1.28-.99.34-2.14.51-3.43.51-2.95,0-5.25-.85-6.89-2.54s-2.46-3.98-2.46-6.88c0-1.36.2-2.63.61-3.8.4-1.17.99-2.17,1.77-3s1.73-1.47,2.87-1.92c1.14-.45,2.39-.67,3.77-.67,1.8,0,3.34.38,4.63,1.14s2.25,1.75,2.89,2.95c.64,1.21.96,2.43.96,3.69,0,1.16-.33,1.91-.99,2.26-.66.34-1.6.51-2.8.51Zm-9-2.62h8.34c-.11-1.58-.54-2.76-1.27-3.54s-1.71-1.18-2.91-1.18-2.09.4-2.82,1.19c-.74.8-1.18,1.97-1.34,3.53Zm4.72-14.52h2.28c.57,0,.86.09.86.25,0,.09-.31.46-.94,1.1-.63.64-1.26,1.26-1.9,1.84-.64.59-1.09.94-1.33,1.06-.64.33-1.33.49-2.06.49-.48,0-.72-.14-.72-.42,0-.19.15-.52.44-1l.76-1.42c.44-.82.82-1.35,1.15-1.57.33-.22.82-.34,1.48-.34Z"/>
    <path class="cls-5" d="m640.57,264.12c0,.57-.17,1.19-.51,1.84-.34.65-.86,1.28-1.57,1.87-.7.59-1.59,1.07-2.66,1.43-1.07.36-2.27.54-3.61.54-2.84,0-5.06-.83-6.66-2.49-1.6-1.66-2.39-3.89-2.39-6.69,0-1.89.36-3.57,1.1-5.02.73-1.45,1.79-2.58,3.17-3.37,1.38-.8,3.03-1.19,4.95-1.19,1.19,0,2.28.17,3.28.52s1.84.8,2.53,1.35c.69.55,1.22,1.14,1.58,1.77.37.63.55,1.21.55,1.75s-.2,1.02-.62,1.4c-.41.38-.91.57-1.49.57-.38,0-.7-.1-.95-.3s-.54-.52-.85-.96c-.56-.86-1.15-1.5-1.76-1.93s-1.39-.64-2.33-.64c-1.36,0-2.46.53-3.29,1.6s-1.25,2.52-1.25,4.37c0,.87.11,1.67.32,2.39.21.73.52,1.35.93,1.86.4.51.89.9,1.47,1.17.57.26,1.2.4,1.89.4.92,0,1.71-.21,2.37-.64s1.24-1.08,1.74-1.96c.28-.52.58-.92.91-1.22s.73-.44,1.2-.44c.56,0,1.03.21,1.4.64s.56.88.56,1.37Z"/>
    <path class="cls-5" d="m649.67,248.92c-.64,0-1.19-.2-1.64-.59-.45-.39-.68-.95-.68-1.67,0-.65.23-1.19.7-1.62.47-.42,1.01-.63,1.63-.63s1.12.19,1.58.58c.46.38.69.94.69,1.67s-.22,1.27-.67,1.66c-.45.4-.98.6-1.6.6Zm2.28,4.77v13.34c0,.92-.22,1.62-.66,2.1s-.99.71-1.67.71-1.22-.24-1.64-.73c-.42-.48-.63-1.18-.63-2.08v-13.2c0-.91.21-1.6.63-2.06.42-.46.97-.69,1.64-.69s1.23.23,1.67.69.66,1.1.66,1.93Z"/>
    <path class="cls-5" d="m671.09,267.22c-1.11.87-2.19,1.52-3.23,1.95-1.04.43-2.2.65-3.5.65-1.18,0-2.22-.23-3.11-.7-.89-.47-1.58-1.1-2.06-1.9-.48-.8-.73-1.67-.73-2.6,0-1.26.4-2.34,1.2-3.23.8-.89,1.89-1.49,3.29-1.79.29-.07,1.02-.22,2.17-.46,1.16-.24,2.15-.45,2.98-.65.83-.2,1.72-.44,2.69-.72-.06-1.22-.3-2.11-.73-2.68-.43-.57-1.33-.85-2.69-.85-1.17,0-2.05.16-2.64.49s-1.1.82-1.52,1.47c-.42.65-.72,1.09-.89,1.29-.17.21-.55.31-1.12.31-.52,0-.96-.17-1.34-.5-.38-.33-.56-.76-.56-1.28,0-.81.29-1.6.86-2.37.57-.77,1.47-1.4,2.68-1.89,1.21-.5,2.72-.74,4.53-.74,2.02,0,3.61.24,4.77.72,1.16.48,1.97,1.24,2.45,2.27.48,1.04.72,2.41.72,4.13,0,1.08,0,2,0,2.76s-.01,1.59-.03,2.52c0,.87.14,1.77.43,2.71.29.94.43,1.55.43,1.82,0,.47-.22.9-.67,1.29-.44.39-.95.58-1.51.58-.47,0-.94-.22-1.4-.67-.46-.44-.95-1.09-1.47-1.94Zm-.3-6.68c-.67.25-1.65.51-2.94.79-1.29.28-2.18.48-2.67.61s-.97.38-1.42.76c-.45.38-.67.9-.67,1.58s.26,1.29.79,1.78,1.22.74,2.07.74c.91,0,1.75-.2,2.52-.6.77-.4,1.33-.92,1.69-1.55.42-.7.62-1.85.62-3.45v-.66Z"/>
    <path class="cls-5" d="m697.54,263.79c0,1.27-.31,2.36-.93,3.27-.62.91-1.53,1.6-2.74,2.06-1.21.47-2.68.7-4.41.7s-3.07-.26-4.25-.76c-1.18-.51-2.05-1.14-2.61-1.9-.56-.76-.84-1.52-.84-2.29,0-.51.18-.94.54-1.3s.81-.54,1.37-.54c.48,0,.85.12,1.11.35.26.24.51.57.74,1,.47.82,1.04,1.44,1.69,1.84s1.55.61,2.69.61c.92,0,1.68-.21,2.27-.62s.88-.88.88-1.41c0-.81-.31-1.4-.92-1.78s-1.62-.73-3.03-1.06c-1.58-.39-2.87-.81-3.87-1.24s-1.79-1.01-2.38-1.72c-.6-.71-.89-1.58-.89-2.62,0-.92.28-1.8.83-2.62.55-.82,1.36-1.48,2.44-1.97s2.37-.74,3.89-.74c1.19,0,2.26.13,3.21.37.95.25,1.74.58,2.38,1s1.12.88,1.45,1.39c.33.51.5,1,.5,1.49,0,.53-.18.96-.53,1.3-.35.34-.86.51-1.51.51-.47,0-.87-.13-1.21-.41-.33-.27-.71-.68-1.14-1.22-.35-.45-.76-.81-1.23-1.08-.47-.27-1.11-.41-1.92-.41s-1.52.18-2.07.53c-.55.35-.83.8-.83,1.33,0,.48.2.88.61,1.19.4.31.95.57,1.63.77.69.2,1.63.45,2.83.74,1.43.35,2.59.77,3.5,1.25.9.48,1.59,1.06,2.06,1.72.47.66.7,1.41.7,2.26Z"/>
  </g>
  <g>
    <ellipse class="cls-7" cx="447.59" cy="155.1" rx="64.84" ry="65.05"/>
    <polygon class="cls-1" points="484.17 149.08 455.91 149.08 455.91 177.55 484.17 177.55 484.17 217.51 512.44 217.51 512.44 177.55 512.44 149.08 484.17 149.08"/>
  </g>
</svg>