<?xml version="1.0" encoding="UTF-8"?>
<svg id="Layer_1" data-name="Layer 1" xmlns="http://www.w3.org/2000/svg" viewBox="0 0 249.71 249.71">
  <defs>
    <style>
      .cls-1 {
        fill: #f04c4b;
      }

      .cls-2 {
        fill: #f05c79;
      }

      .cls-3 {
        fill: #fff;
      }

      .cls-4 {
        fill: #f37b21;
      }

      .cls-5 {
        fill: #fcc014;
      }

      .cls-6 {
        fill: #6c57a5;
      }

      .cls-7 {
        fill: #91c74a;
      }

      .cls-8 {
        fill: #1cbdef;
      }
    </style>
  </defs>
  <g>
    <rect class="cls-5" x="82.82" y="145.29" width="84.02" height="84.02" transform="translate(-95.88 143.13) rotate(-45)"/>
    <path class="cls-3" d="m124.83,130.89l56.4,56.4-56.4,56.4-56.4-56.4,56.4-56.4m0-6.01l-62.42,62.42,62.42,62.42,62.42-62.42-62.42-62.42h0Z"/>
  </g>
  <g>
    <polygon class="cls-4" points="5.13 2.17 244.53 2.17 124.83 121.87 5.13 2.17"/>
    <path class="cls-3" d="m239.4,4.3l-114.57,114.57L10.27,4.3h229.13M249.66.05H0l124.83,124.83L249.66.05h0Z"/>
  </g>
  <g>
    <polygon class="cls-7" points="2.13 5.18 121.83 124.88 2.13 244.58 2.13 5.18"/>
    <path class="cls-3" d="m4.25,10.31l114.57,114.57L4.25,239.45V10.31M0,.05v249.66l124.83-124.83L0,.05h0Z"/>
  </g>
  <g>
    <polygon class="cls-6" points="5.28 247.59 62.61 190.26 119.94 247.59 5.28 247.59"/>
    <path class="cls-3" d="m62.61,193.26l52.2,52.2H10.41l52.2-52.2m0-6.01L.15,249.71h124.93l-62.46-62.46h0Z"/>
  </g>
  <g>
    <polygon class="cls-1" points="128.08 124.88 185.41 67.55 185.41 182.21 128.08 124.88"/>
    <path class="cls-3" d="m183.29,72.68v104.4l-52.2-52.2,52.2-52.2m4.25-10.27l-62.46,62.46,62.46,62.46V62.42h0Z"/>
  </g>
  <g>
    <polygon class="cls-8" points="189.37 63.34 247.59 5.13 247.59 123.97 189.37 182.18 189.37 63.34"/>
    <path class="cls-3" d="m245.46,10.27v112.82l-53.96,53.96v-112.82l53.96-53.96m4.25-10.27l-62.42,62.42-.04-.04v124.93l62.42-62.42.04.04V0h0Z"/>
  </g>
  <g>
    <polygon class="cls-2" points="130.02 247.44 247.48 129.98 247.48 247.44 130.02 247.44"/>
    <path class="cls-3" d="m245.36,135.11v110.2h-110.2l110.2-110.2m4.25-10.27l-124.72,124.72h124.72v-124.72h0Z"/>
  </g>
</svg>